<svg xml:space="preserve" style="max-height: 500px" viewBox="104.93836858006043 0 650.9220543806647 73.92972972972971" y="0px" x="0px" xmlns:xlink="http://www.w3.org/1999/xlink" xmlns="http://www.w3.org/2000/svg" id="Capa_1" version="1.1" width="650.9220543806647" height="73.92972972972971">
<style type="text/css">
	.st0{fill:#FFFFFF;}
</style>
<title>alias</title>
<path d="M41.5,30.4c3,0,6,0.6,8.7,1.9c-1.9-5.4-6.9-12.1-8.7-14.4c-1.8,2.3-6.8,9-8.7,14.4C35.5,31,38.5,30.4,41.5,30.4&#10;&#9;z" class="st0"/>
<path d="M82.9,12.6C71.1,4.7,57.2,0.3,42.9,0c7.3,9.5,22.7,30.8,29.9,49C78.4,37.6,81.9,25.2,82.9,12.6z" class="st0"/>
<path d="M40,0C25.8,0.3,11.9,4.7,0,12.6c1.1,12.7,4.5,25,10.1,36.4C17.3,30.8,32.8,9.5,40,0z" class="st0"/>
<path d="M41.5,44.9c-10.4,0-20.7,2.1-30.3,6.1c7,13.6,17.5,25.2,30.3,33.5C54.3,76.2,64.7,64.6,71.7,51&#10;&#9;C62.2,47,51.9,44.9,41.5,44.9z" class="st0"/>
<path d="M140.7,14.9h-11.5l-19.5,53h11.6l5.1-14.5h16.9l5.1,14.5h11.5l-19.1-52.5L140.7,14.9z M140.4,44.7h-11.1&#10;&#9;l5.6-17.5C135.8,29.7,137.3,34.7,140.4,44.7z" class="st0"/>
<polygon points="180.3,14.9 169.2,14.9 169.2,67.9 201.5,67.9 201.9,58.8 180.3,58.8" class="st0"/>
<rect height="53" width="11.1" class="st0" y="14.9" x="214.9"/>
<path d="M266.9,14.9h-11.4l-19.5,53h11.6l5.1-14.5h16.9l5.1,14.5h11.4l-19-52.5L266.9,14.9z M266.7,44.7h-11l5.6-17.5&#10;&#9;C262.1,29.7,263.6,34.7,266.7,44.7L266.7,44.7z" class="st0"/>
<path d="M317.1,36.5l-4.3-1.4c-2.2-0.7-3.5-1.1-4.1-1.4c-2.5-0.8-3.7-2.3-3.7-4.8c0.1-2.1,0.7-3.5,2-4.4&#10;&#9;c1.8-1,3.9-1.5,6-1.3c4.3,0.1,8.6,1.1,12.5,3l0.7,0.3l3.5-8.3l-0.6-0.3c-5-2.7-10.7-4.1-16.4-3.9c-5.6,0-10.2,1.3-13.7,4&#10;&#9;s-5.3,6.5-5.3,11.4c0,7,3.7,11.8,10.9,14.4c0.5,0.2,1.5,0.5,2.7,0.9s2.6,0.8,4,1.2l2.6,0.8c4,1.2,5.9,3.1,5.9,6c0.1,1.9-0.6,3.7-2,5&#10;&#9;c-1.4,1.2-3.5,1.8-6.4,1.8c-2.5,0-5-0.4-7.4-1.1c-2.4-0.7-4.8-1.7-7-2.9l-0.8-0.5l-2.8,9.1l0.5,0.3c5.2,3,11.1,4.5,17.1,4.4&#10;&#9;c6,0,10.9-1.4,14.5-4.1s5.5-6.8,5.5-11.9c0-4.3-1.1-7.7-3.2-10.1S321.9,38.1,317.1,36.5z" class="st0"/>
<path d="M396.6,43.7c5.9-2.4,8.8-7,8.8-13.8c0-2.1-0.3-4.3-1-6.3c-1.1-3.4-3.8-6-7.2-7.1c-1.8-0.6-3.7-1.1-5.6-1.3&#10;&#9;c-2.3-0.3-4.6-0.4-6.9-0.4h-19.9v53.2h11V45.8l7.2,0.1c1.7,0,2.9,0,3.5,0c0.6,1.2,2,3.9,4,8.1l6.2,13.9h12.1l-8.2-17&#10;&#9;C399.6,48.4,398.2,46,396.6,43.7z M395.1,30c0,2.6-0.7,4.5-2.1,5.7s-3.9,1.7-7.4,1.7h-5.3h-4.5v-14h10.1c3.1,0,5.5,0.5,7,1.6&#10;&#9;S395.1,27.7,395.1,30z" class="st0"/>
<path d="M442.9,14.2c-7.9,0-14.3,2.4-18.9,7.2s-7,11.5-7,20s2.3,15.2,6.9,20s11,7.3,18.9,7.3s14.3-2.5,18.9-7.3&#10;&#9;s7-11.5,7-19.9s-2.3-15.2-6.9-20S450.9,14.2,442.9,14.2z M453.6,54.8c-2.4,3.1-5.9,4.6-10.7,4.6s-8.3-1.5-10.7-4.6&#10;&#9;s-3.7-7.6-3.7-13.3c0-5.7,1.2-10.3,3.7-13.5s6-4.7,10.7-4.7s8.2,1.5,10.6,4.7s3.6,7.7,3.6,13.5S456.1,51.7,453.6,54.8L453.6,54.8z" class="st0"/>
<path d="M513.1,39.6c0.5-0.3,1-0.6,1.5-0.9c0.9-0.7,1.7-1.5,2.4-2.4c0.6-0.8,1.1-1.7,1.4-2.7c0.3-0.9,0.5-1.7,0.7-2.6&#10;&#9;c0.1-0.8,0.2-1.5,0.2-2.3c0-4.9-1.8-8.5-5.4-10.6s-8.7-3.1-15.6-3.1h-16.8v53h19.8c6.2,0,11.2-1.3,14.7-4s5.5-6.6,5.5-11.7&#10;&#9;c0.1-3.1-0.9-6.1-2.7-8.6C517.2,41.8,515.3,40.4,513.1,39.6z M492.4,44.4h7.2c3.6,0,6.3,0.6,8,1.8c1.7,1.2,2.4,3,2.4,5.6&#10;&#9;c0,5.2-3.3,7.8-10.2,7.8h-7.5V44.4z M499.8,36.2h-7.4V23.5h5.4c3.8,0,6.6,0.5,8.3,1.4s2.3,2.5,2.3,4.9&#10;&#9;C508.5,34.1,505.6,36.2,499.8,36.2L499.8,36.2z" class="st0"/>
<path d="M557.1,14.2c-7.9,0-14.3,2.4-18.9,7.2s-7,11.5-7,20s2.3,15.2,6.9,20s11,7.3,18.9,7.3s14.3-2.5,18.9-7.3&#10;&#9;s7-11.5,7-19.9s-2.3-15.2-6.9-20S565,14.2,557.1,14.2z M567.8,54.8c-2.4,3.1-5.8,4.6-10.7,4.6s-8.3-1.5-10.7-4.6s-3.7-7.6-3.7-13.3&#10;&#9;c0-5.7,1.2-10.3,3.7-13.5s5.9-4.7,10.7-4.7s8.2,1.5,10.6,4.7s3.6,7.7,3.6,13.5S570.2,51.7,567.8,54.8z" class="st0"/>
<polygon points="589.5,24.1 604.5,24.1 604.5,67.9 615.6,67.9 615.6,24.1 630.5,24.1 630.5,14.9 589.5,14.9" class="st0"/>
<rect height="53" width="11.1" class="st0" y="14.9" x="641.7"/>
<path d="M691.7,23.4c4.1,0.1,8.2,1.3,11.7,3.6l0.8,0.5l3.6-8.6l-0.5-0.3c-4.7-3-10.2-4.5-15.7-4.3&#10;&#9;c-7.6,0-13.9,2.5-18.6,7.4s-7.1,11.5-7.1,19.6c0,8.5,2.3,15.3,6.8,20.1s10.7,7.4,18.4,7.4c6,0,11.2-1.2,15.2-3.6l0.5-0.3l-1.5-9&#10;&#9;l-1,0.5c-3.8,2-8.1,3.1-12.4,3.1c-4.7,0-8.2-1.5-10.8-4.6s-3.8-7.6-3.8-13.3c0-5.5,1.3-10,4-13.2C683.6,25,687.5,23.2,691.7,23.4z" class="st0"/>
<path d="M751.9,42.5c-2.1-2.4-5.6-4.4-10.4-6l-4.3-1.4c-2.2-0.7-3.5-1.1-4.2-1.4c-2.5-0.8-3.7-2.3-3.7-4.8&#10;&#9;c0.1-2.1,0.7-3.5,2-4.4c1.8-1,3.9-1.5,6-1.3c4.3,0.1,8.6,1.1,12.5,3l0.7,0.3l3.5-8.3l-0.6-0.3c-5-2.7-10.7-4.1-16.4-3.9&#10;&#9;c-5.6,0-10.2,1.3-13.7,4s-5.3,6.5-5.3,11.4c0,7,3.7,11.8,10.9,14.4c0.5,0.2,1.5,0.5,2.7,0.9s2.6,0.8,4,1.2l2.6,0.8&#10;&#9;c4,1.2,5.9,3.1,5.9,6c0.1,1.9-0.6,3.7-2,5c-1.4,1.2-3.5,1.8-6.3,1.8c-2.5,0-5-0.4-7.3-1.1c-2.4-0.7-4.8-1.7-7-2.9l-0.8-0.5l-2.8,9.1&#10;&#9;l0.5,0.3c5.2,3,11.1,4.5,17.1,4.4c6,0,10.9-1.4,14.5-4.1s5.5-6.8,5.5-11.9C755.1,48.3,754,44.9,751.9,42.5z" class="st0"/>
</svg>