<?xml version="1.0" encoding="utf-8"?>
<!-- Generator: Adobe Illustrator 22.0.0, SVG Export Plug-In . SVG Version: 6.00 Build 0)  -->
<svg version="1.1" id="Capa_1" xmlns="http://www.w3.org/2000/svg" xmlns:xlink="http://www.w3.org/1999/xlink" x="0px" y="0px"
	 viewBox="0 0 70 73.3" style="enable-background:new 0 0 70 73.3;" xml:space="preserve">
<style type="text/css">
	.st0{fill:#FFFFFF;}
</style>
<g>
	<g>
		<g>
			<g>
				<path class="st0" d="M35,26.9c2.5,0,4.9,0.6,7.1,1.5c-1.5-4.4-5.6-9.8-7.1-11.7c-1.5,1.9-5.5,7.3-7.1,11.7
					C30.1,27.5,32.5,26.9,35,26.9z"/>
			</g>
			<g>
				<path class="st0" d="M68.7,12.5C59.1,6.2,48,2.5,36.2,2.3c5.9,7.7,18.4,25,24.3,39.8C64.9,33.2,67.8,23.1,68.7,12.5z"/>
			</g>
			<g>
				<path class="st0" d="M33.8,2.3C22,2.5,10.9,6.2,1.3,12.5c0.9,10.7,3.8,20.7,8.2,29.6C15.4,27.3,27.9,10,33.8,2.3z"/>
			</g>
			<g>
				<path class="st0" d="M35,38.8c-8.7,0-17.1,1.8-24.6,5C16.3,55.1,24.8,64.5,35,71c10.2-6.5,18.6-15.9,24.6-27.3
					C52,40.5,43.7,38.8,35,38.8z"/>
			</g>
		</g>
	</g>
</g>
</svg>
